# xmcd
#
# Track frame offsets:
#	150
#	5171
#	29653
#	44721
#	65446
#	85730
#	109919
#	124168
#	152206
#	194898
#	220533
#	245618
#
# Disc length: 3625 seconds
#
# Revision: 1
# Processed by: cddbd v1.5.1PL2 Copyright (c) Steve Scherf et al.
# Submitted via: EasyCDDAExtractor 9.0.0.1
#
DISCID=b40e270c
DTITLE=Guns and Roses - Gofferpark Nijmegen 02-07-06 Disc 1
DYEAR=2006
DGENRE=Hard Rock
TTITLE0=Intro
TTITLE1=Welcome To The Jungle
TTITLE2=It's So Easy
TTITLE3=Mr Brownstone
TTITLE4=Live And Let Die
TTITLE5=Better
TTITLE6=Robin Solo
TTITLE7=Sweet Child O' Mine
TTITLE8=Knockin' On Heavens Door
TTITLE9=Dizzy Solo
TTITLE10=The Blues
TTITLE11=You Could Be Mine
EXTD=
EXTT0=
EXTT1=
EXTT2=
EXTT3=
EXTT4=
EXTT5=
EXTT6=
EXTT7=
EXTT8=
EXTT9=
EXTT10=
EXTT11=
PLAYORDER=
